<svg width="41" height="28" viewBox="0 0 41 28" fill="none" xmlns="http://www.w3.org/2000/svg">
<path d="M26.894 13.956L40.1102 22.3111V5.24817L26.894 13.956Z" fill="#1E959B"/>
<path d="M0.907715 5.24817V22.3111L14.1239 13.956L0.907715 5.24817Z" fill="#1E959B"/>
<path d="M37.6598 0.279297H3.35761C2.13498 0.279297 1.16472 1.19075 0.980957 2.36438L20.5087 15.2302L40.0365 2.36438C39.8527 1.19075 38.8824 0.279297 37.6598 0.279297Z" fill="#1E959B"/>
<path d="M24.6499 15.4359L21.183 17.7195C20.9772 17.8542 20.7444 17.9204 20.5092 17.9204C20.274 17.9204 20.0412 17.8542 19.8354 17.7195L16.3684 15.4335L0.986328 25.163C1.17499 26.3269 2.14035 27.231 3.35808 27.231H37.6603C38.878 27.231 39.8434 26.3269 40.032 25.163L24.6499 15.4359Z" fill="#1E959B"/>
</svg>
